<svg xmlns="http://www.w3.org/2000/svg" version="1.1" xmlns:xlink="http://www.w3.org/1999/xlink" xmlns:svgjs="http://svgjs.com/svgjs" width="200.000000pt" height="200.000000pt"><svg version="1.0" xmlns="http://www.w3.org/2000/svg" width="200.000000pt" height="200.000000pt" viewBox="0 0 1080.000000 1080.000000" preserveAspectRatio="xMidYMid meet">

<g transform="translate(0.000000,1080.000000) scale(0.100000,-0.100000)" fill="#fff" stroke="none">
<path d="M5765 8928 c-3 -7 -6 -875 -8 -1928 l-2 -1915 -765 0 c-757 0 -766 1
-890 24 -69 12 -159 31 -200 41 -735 184 -1108 805 -1110 1846 -1 588 122
1052 364 1378 111 148 292 303 449 382 124 64 291 117 442 144 39 6 84 15 100
20 90 24 -288 -2 -492 -35 -194 -31 -412 -90 -588 -158 -75 -29 -260 -129
-336 -182 -109 -75 -155 -112 -237 -194 -260 -258 -428 -579 -498 -950 -32
-168 -43 -465 -25 -642 47 -455 222 -818 541 -1127 61 -59 202 -169 237 -185
13 -6 23 -14 23 -19 0 -4 5 -8 10 -8 6 0 27 -10 48 -23 212 -133 540 -246 874
-302 109 -18 298 -36 309 -29 4 2 10 1 13 -4 3 -5 0 -9 -7 -10 -43 -5 -211
-35 -317 -57 -330 -68 -631 -202 -845 -377 -91 -74 -235 -231 -308 -336 -180
-256 -257 -449 -391 -972 -119 -467 -127 -496 -205 -735 -56 -176 -141 -370
-204 -467 -100 -157 -334 -314 -527 -354 -109 -23 -246 -15 -459 27 -66 13
-94 10 -83 -8 9 -14 263 -67 392 -83 245 -29 306 -32 480 -27 102 3 203 10
225 16 22 6 72 18 110 27 213 50 416 168 558 325 220 242 418 678 576 1264 16
61 50 187 75 282 25 94 60 213 77 265 50 152 101 292 110 303 5 5 9 15 9 23 0
7 29 73 64 146 184 380 392 570 736 674 150 45 186 47 945 47 l720 0 0 -1530
c0 -1442 -1 -1533 -18 -1581 -10 -28 -28 -61 -42 -74 -32 -30 -121 -50 -230
-50 -189 0 -376 -13 -365 -24 8 -8 231 -12 740 -15 l730 -3 2 1073 c1 591 2
2154 2 3474 1 2329 2 2402 20 2458 21 65 56 101 114 117 63 17 353 12 523 -10
211 -26 426 -81 594 -151 299 -123 572 -308 814 -549 532 -530 843 -1186 976
-2060 66 -434 65 -1091 -1 -1525 -9 -55 -19 -125 -24 -155 -16 -105 -60 -294
-107 -460 -105 -374 -319 -806 -547 -1105 -228 -299 -483 -542 -751 -717 -69
-45 -230 -138 -239 -138 -2 0 -37 -15 -78 -34 -161 -74 -319 -126 -483 -161
-44 -9 -96 -20 -115 -25 l-35 -8 40 -1 c141 -4 526 71 810 158 406 124 847
364 1176 641 82 69 270 243 309 286 363 400 578 758 732 1219 23 66 44 134 48
150 5 17 15 55 23 85 42 158 72 324 98 535 31 257 31 720 0 981 -41 349 -104
616 -213 904 -104 273 -261 563 -422 775 -66 87 -71 93 -173 210 -38 44 -80
93 -94 109 -31 37 -181 173 -359 326 -68 58 -254 186 -405 278 -84 51 -354
192 -369 192 -3 0 -28 10 -54 21 -89 40 -107 47 -227 87 -108 37 -235 71 -425
116 -136 32 -355 60 -600 76 -228 15 -1359 13 -1365 -2z"></path>
</g>
</svg><style>@media (prefers-color-scheme: light) { :root { filter: contrast(1) brightness(0.6); } }
</style></svg>